<svg width="320" height="58.786660622894196" viewBox="0 0 346.2547916070907 63.609884135178106" class="css-1j8o68f"><defs id="SvgjsDefs1537"></defs><g id="SvgjsG1538" featurekey="5TMTKC-0" transform="matrix(1.2472526301015314,0,0,1.2472526301015314,-29.16076544503774,-30.557689437487518)" fill="#592b2d"><defs xmlns="http://www.w3.org/2000/svg"></defs><title xmlns="http://www.w3.org/2000/svg">Artboard 101</title><path xmlns="http://www.w3.org/2000/svg" class="cls-1" d="M41.27,41.68s-4.83-4.65,0-8.41,0-8.77,0-8.77" style="fill: none; stroke: #592b2d; stroke-miterlimit: 10; stroke-linecap: round; stroke-width: 2px;"></path><path xmlns="http://www.w3.org/2000/svg" class="cls-1" d="M49.52,41.68s-4.83-4.65,0-8.41,0-8.77,0-8.77" style="fill: none; stroke: #592b2d; stroke-miterlimit: 10; stroke-linecap: round; stroke-width: 2px;"></path><path xmlns="http://www.w3.org/2000/svg" class="cls-2" d="M44.24,47.64H46.9a19,19,0,0,1,19,19v5.7a1,1,0,0,1-1,1h-39a.67.67,0,0,1-.67-.67v-6a19,19,0,0,1,19-19Z" transform="translate(91.11 121) rotate(-179.97)" style="fill: none; stroke: #592b2d; stroke-miterlimit: 10; stroke-width: 2px;"></path><path xmlns="http://www.w3.org/2000/svg" class="cls-2" d="M64.72,47.65a4.41,4.41,0,0,1,.52,0h4.51a6.88,6.88,0,0,1,0,13.76H65.25a5.32,5.32,0,0,1-.69,0" style="fill: none; stroke: #592b2d; stroke-miterlimit: 10; stroke-width: 2px;"></path><line xmlns="http://www.w3.org/2000/svg" class="cls-3" x1="23.38" y1="73.81" x2="66.88" y2="73.81" style="fill: none; stroke: #592b2d; stroke-miterlimit: 10; stroke-linecap: round;"></line><line xmlns="http://www.w3.org/2000/svg" class="cls-3" x1="32.01" y1="75.5" x2="58.24" y2="75.5" style="fill: none; stroke: #592b2d; stroke-miterlimit: 10; stroke-linecap: round;"></line><line xmlns="http://www.w3.org/2000/svg" class="cls-4" x1="54" y1="47.64" x2="54" y2="54.5" style="fill: none; stroke: #592b2d; stroke-miterlimit: 10;"></line><rect xmlns="http://www.w3.org/2000/svg" class="cls-4" x="50.59" y="54.5" width="6.82" height="9.17" rx="0.5" ry="0.5" style="fill: none; stroke: #592b2d; stroke-miterlimit: 10;"></rect></g><g id="SvgjsG1539" featurekey="nameLeftFeature-0" transform="matrix(1.834701785982213,0,0,1.834701785982213,81.41324553504447,9.349468185803646)" fill="#48466d"><path d="M7.64 16.66 l-4.14 -7.42 l0 10.26 l-1 0 l0 -14 l6.3 11.16 l-1.16 0 z M14 19.5 l-1 0 l0 -10.26 l-3.9 6.9 l-6 -10.64 l1.14 0 l4.86 8.66 l4.9 -8.66 l0 14 z M12.26 5.5 l1.14 0 l-4.3 7.6 l-0.56 -0.94 z M5 19.5 l-1 0 l0 -8.34 l1 1.74 l0 6.6 z M11.5 19.5 l0 -6.6 l1 -1.74 l0 8.34 l-1 0 z M17.44 19.5 l4.66 -14 l1.04 0 l-3.04 9.26 l3.44 0 l0.36 1 l-4.14 0 l-1.26 3.74 l-1.06 0 z M27.259999999999998 19.5 l-3.6 -10.8 l-1.86 5.56 l-1.06 0 l2.96 -8.76 l4.6 14 l-1.04 0 z M25.64 19.5 l-0.74 -2.24 l-3.76 0 l-0.7 -1 l4.16 0 l-1.46 -4.46 l0.52 -1.54 l3.08 9.24 l-1.1 0 z M20.06 19.5 l-1.06 0 l1.06 -3 l0.64 1 z M38.5 19.5 l-5.76 -10.26 l0 10.26 l-1 0 l0 -14 l7.9 14 l-1.14 0 z M40.24 19.5 l-7.9 -14 l1.14 0 l5.76 10.26 l0 -10.26 l1 0 l0 14 z M37.74 5.5 l1 0 l0 8.3 l-1 -1.74 l0 -6.56 z M34.24 19.5 l-1 0 l0 -8.34 l1 1.74 l0 6.6 z M44.74 10.26 c0 -3 1.8 -5 4.5 -5 s4.5 2 4.5 5 l-1 0 c0 -2.4 -1.4 -4.02 -3.5 -4.02 s-3.5 1.62 -3.5 4.02 l0 4.5 c0 2.4 1.4 4 3.5 4 c0.96 0 1.74 -0.36 2.34 -0.96 l0.76 0.74 c-0.8 0.76 -1.84 1.2 -3.1 1.2 c-2.7 0 -4.5 -1.98 -4.5 -4.98 l0 -4.5 z M49.24 7.74 c-0.5 0 -0.9 0.16 -1.26 0.46 l-0.74 -0.7 c0.56 -0.5 1.2 -0.74 2 -0.74 c1.8 0 3 1.4 3 3.5 l-1 0 c0 -1.5 -0.8 -2.52 -2 -2.52 z M49.24 17.259999999999998 c1.2 0 2 -1 2 -2.5 l0 -1.26 l-2 0 l0 -1 l3 0 l0 2.26 c0 2.1 -1.2 3.48 -3 3.48 s-3 -1.38 -3 -3.48 l0 -4.5 c0 -0.96 0.24 -1.76 0.7 -2.36 l0.7 0.7 c-0.26 0.46 -0.4 1 -0.4 1.66 l0 4.5 c0 1.5 0.8 2.5 2 2.5 z M53.74 14.76 c0 1.38 -0.4 2.54 -1.06 3.4 l-0.74 -0.7 c0.5 -0.72 0.8 -1.62 0.8 -2.7 l0 -2.26 l1 0 l0 2.26 z M49.24 15 l0 -1 l1.5 0 l0 1 l-1.5 0 z M56.68 19.5 l4.66 -14 l1.04 0 l-3.04 9.26 l3.44 0 l0.36 1 l-4.14 0 l-1.26 3.74 l-1.06 0 z M66.5 19.5 l-3.6 -10.8 l-1.86 5.56 l-1.06 0 l2.96 -8.76 l4.6 14 l-1.04 0 z M64.88 19.5 l-0.74 -2.24 l-3.76 0 l-0.7 -1 l4.16 0 l-1.46 -4.46 l0.52 -1.54 l3.08 9.24 l-1.1 0 z M59.300000000000004 19.5 l-1.06 0 l1.06 -3 l0.64 1 z"></path></g><g id="SvgjsG1540" featurekey="nameRightFeature-0" transform="matrix(1.7710987347441745,0,0,1.7710987347441745,213.45780337503734,10.144506326279128)" fill="#48466d"><path d="M12 10 c0 1.8 -0.76 3.26 -1.96 4.1 l1.96 5.9 l-3.64 0 l-1.72 -5 l-1.14 0 l0 5 l-3.5 0 l0 -15 l5 0 c3 0 5 2 5 5 z M7.54 12.96 c1.5 -0.2 2.46 -1.36 2.46 -2.96 c0 -1.8 -1.2 -3 -3 -3 l-2.7 0 l1.06 1 l1.64 0 c1.2 0 2 0.8 2 2 s-0.8 2 -2 2 l-3.5 0 l0 -5.5 l3.5 0 c2.1 0 3.5 1.4 3.5 3.5 c0 0.9 -0.3 1.7 -0.76 2.3 l0.76 0.76 c0.64 -0.82 1 -1.86 1 -3.06 c0 -2.7 -1.8 -4.5 -4.5 -4.5 l-4.5 0 l0 14 l1 0 l0 -6.5 l3 0 l2.16 6.5 l1.08 0 z M4 11.5 l1 0 l0 -3.1 l-1 -1 l0 4.1 z M7 11.5 c0.9 0 1.5 -0.6 1.5 -1.5 s-0.6 -1.5 -1.5 -1.5 l-1.5 0 l0 3 l1.5 0 z M9.44 13.9 c0.26 -0.16 0.46 -0.3 0.66 -0.5 l-0.7 -0.7 c-0.36 0.3 -0.74 0.5 -1.2 0.66 l2.04 6.14 l1.06 0 z M6.5 14.5 l-0.36 -1 l-1.8 0 l1.06 1 l1.1 0 z M5 19.5 l0 -4.64 l-1 -1 l0 5.64 l1 0 z M18.5 14.5 l0 2 l5 0 l0 3.5 l-8.5 0 l0 -15 l8.5 0 l0 3.5 l-5 0 l0 2.5 l4 0 l0 3.5 l-4 0 z M15.5 5.5 l0 12.5 l7.5 0 l0 -1 l-6.5 0 l0 -4.5 l5.5 0 l0 -1 l-5.5 0 l0 -5 l6.5 0 l0 -1 l-7.5 0 z M23 7 l-5.66 0 l1.06 1 l4.6 0 l0 -1 z M17 11 l1 0 l0 -2.66 l-1 -0.98 l0 3.64 z M22 13 l-4.66 0 l1.06 1 l3.6 0 l0 -1 z M17 16.5 l1 0 l0 -2.16 l-1 -0.98 l0 3.14 z M23 18.5 l-7.5 0 l0 1 l7.5 0 l0 -1 z M29.64 17.759999999999998 l-0.74 2.24 l-3.64 0 l4.98 -15 l2.26 0 l5 15 l-3.66 0 l-0.78 -2.24 l-3.42 0 z M28.6 14.76 l3.04 -9.26 l-1.04 0 l-4.66 14 l1.06 0 l1.26 -3.74 l4.14 0 l-0.36 -1 l-3.44 0 z M32.16 8.7 l3.6 10.8 l1.04 0 l-4.6 -14 l-2.96 8.76 l1.06 0 z M28.94 16.259999999999998 l0.7 1 l3.76 0 l0.74 2.24 l1.1 0 l-3.08 -9.24 l-0.52 1.54 l1.46 4.46 l-4.16 0 z M31.34 12.66 l-0.54 1.6 l1.1 0 z M29.2 17.5 l-0.64 -1 l-1.06 3 l1.06 0 z M44.480000000000004 5 c3 0 5 2.2 5 5.5 l0 4 c0 3.3 -2 5.5 -5 5.5 l-4.74 0 l0 -15 l4.74 0 z M48.980000000000004 10.5 c0 -3 -1.8 -5 -4.5 -5 l-4.24 0 l0 12.5 l4.24 0 c1.8 0 3 -1.4 3 -3.5 l0 -4 c0 -2.1 -1.2 -3.5 -3 -3.5 l-2.4 0 l1.02 1 l1.38 0 c1.2 0 2 1 2 2.5 l0 4 c0 1.5 -0.8 2.5 -2 2.5 l-3.24 0 l0 -10.5 l3.24 0 c2.1 0 3.5 1.6 3.5 4 l0 4 c0 1.1 -0.3 2 -0.8 2.7 l0.76 0.7 c0.64 -0.86 1.04 -2 1.04 -3.4 l0 -4 z M41.74 16.5 l1 0 l0 -8.1 l-1 -1.04 l0 9.14 z M44.480000000000004 16.5 c0.9 0 1.5 -0.8 1.5 -2 l0 -4 c0 -1.2 -0.6 -2 -1.5 -2 l-1.24 0 l0 8 l1.24 0 z M44.480000000000004 19.5 c1.26 0 2.3 -0.44 3.12 -1.2 l-0.76 -0.74 c-0.6 0.6 -1.4 0.94 -2.36 0.94 l-4.24 0 l0 1 l4.24 0 z M56.480000000000004 14.5 l0 2 l5 0 l0 3.5 l-8.5 0 l0 -15 l8.5 0 l0 3.5 l-5 0 l0 2.5 l4 0 l0 3.5 l-4 0 z M53.480000000000004 5.5 l0 12.5 l7.5 0 l0 -1 l-6.5 0 l0 -4.5 l5.5 0 l0 -1 l-5.5 0 l0 -5 l6.5 0 l0 -1 l-7.5 0 z M60.980000000000004 7 l-5.66 0 l1.06 1 l4.6 0 l0 -1 z M54.980000000000004 11 l1 0 l0 -2.66 l-1 -0.98 l0 3.64 z M59.980000000000004 13 l-4.66 0 l1.06 1 l3.6 0 l0 -1 z M54.980000000000004 16.5 l1 0 l0 -2.16 l-1 -0.98 l0 3.14 z M60.980000000000004 18.5 l-7.5 0 l0 1 l7.5 0 l0 -1 z M74.98 10 c0 1.8 -0.76 3.26 -1.96 4.1 l1.96 5.9 l-3.64 0 l-1.72 -5 l-1.14 0 l0 5 l-3.5 0 l0 -15 l5 0 c3 0 5 2 5 5 z M70.52000000000001 12.96 c1.5 -0.2 2.46 -1.36 2.46 -2.96 c0 -1.8 -1.2 -3 -3 -3 l-2.7 0 l1.06 1 l1.64 0 c1.2 0 2 0.8 2 2 s-0.8 2 -2 2 l-3.5 0 l0 -5.5 l3.5 0 c2.1 0 3.5 1.4 3.5 3.5 c0 0.9 -0.3 1.7 -0.76 2.3 l0.76 0.76 c0.64 -0.82 1 -1.86 1 -3.06 c0 -2.7 -1.8 -4.5 -4.5 -4.5 l-4.5 0 l0 14 l1 0 l0 -6.5 l3 0 l2.16 6.5 l1.08 0 z M66.98 11.5 l1 0 l0 -3.1 l-1 -1 l0 4.1 z M69.98 11.5 c0.9 0 1.5 -0.6 1.5 -1.5 s-0.6 -1.5 -1.5 -1.5 l-1.5 0 l0 3 l1.5 0 z M72.42 13.9 c0.26 -0.16 0.46 -0.3 0.66 -0.5 l-0.7 -0.7 c-0.36 0.3 -0.74 0.5 -1.2 0.66 l2.04 6.14 l1.06 0 z M69.48 14.5 l-0.36 -1 l-1.8 0 l1.06 1 l1.1 0 z M67.98 19.5 l0 -4.64 l-1 -1 l0 5.64 l1 0 z">
    
</path></g></svg>